<svg xmlns="http://www.w3.org/2000/svg" viewBox="0 0 100 100">
  <circle cx="50" cy="50" r="26" fill="none" stroke="#FFFFFF" stroke-width="2.5" />
  <polygon points="50.00,41.50 58.08,47.37 55.00,56.88 45.00,56.88 41.92,47.37" fill="none" stroke="#D4AF37" stroke-width="2" stroke-linejoin="round"/>
  <line x1="50.00" y1="41.50" x2="50.00" y2="33.00" stroke="#FFFFFF" stroke-width="1.5" stroke-linecap="round"/>
  <line x1="50.00" y1="33.00" x2="34.72" y2="28.97" stroke="#FFFFFF" stroke-width="1.5" stroke-linecap="round"/>
  <line x1="50.00" y1="33.00" x2="65.28" y2="28.97" stroke="#FFFFFF" stroke-width="1.5" stroke-linecap="round"/>
  <line x1="58.08" y1="47.37" x2="66.17" y2="44.75" stroke="#FFFFFF" stroke-width="1.5" stroke-linecap="round"/>
  <line x1="66.17" y1="44.75" x2="65.28" y2="28.97" stroke="#FFFFFF" stroke-width="1.5" stroke-linecap="round"/>
  <line x1="66.17" y1="44.75" x2="74.73" y2="58.03" stroke="#FFFFFF" stroke-width="1.5" stroke-linecap="round"/>
  <line x1="55.00" y1="56.88" x2="59.99" y2="63.75" stroke="#FFFFFF" stroke-width="1.5" stroke-linecap="round"/>
  <line x1="59.99" y1="63.75" x2="74.73" y2="58.03" stroke="#FFFFFF" stroke-width="1.5" stroke-linecap="round"/>
  <line x1="59.99" y1="63.75" x2="50.00" y2="76.00" stroke="#FFFFFF" stroke-width="1.5" stroke-linecap="round"/>
  <line x1="45.00" y1="56.88" x2="40.01" y2="63.75" stroke="#FFFFFF" stroke-width="1.5" stroke-linecap="round"/>
  <line x1="40.01" y1="63.75" x2="50.00" y2="76.00" stroke="#FFFFFF" stroke-width="1.5" stroke-linecap="round"/>
  <line x1="40.01" y1="63.75" x2="25.27" y2="58.03" stroke="#FFFFFF" stroke-width="1.5" stroke-linecap="round"/>
  <line x1="41.92" y1="47.37" x2="33.83" y2="44.75" stroke="#FFFFFF" stroke-width="1.5" stroke-linecap="round"/>
  <line x1="33.83" y1="44.75" x2="25.27" y2="58.03" stroke="#FFFFFF" stroke-width="1.5" stroke-linecap="round"/>
  <line x1="33.83" y1="44.75" x2="34.72" y2="28.97" stroke="#FFFFFF" stroke-width="1.5" stroke-linecap="round"/>
  <path d="M 79.91 63.95 A 33 33 0 0 1 63.95 79.91" fill="none" stroke="#D4AF37" stroke-width="2" stroke-linecap="round"/>
  <path d="M 36.05 79.91 A 33 33 0 0 1 20.09 63.95" fill="none" stroke="#D4AF37" stroke-width="2" stroke-linecap="round"/>
  <path d="M 20.09 36.05 A 33 33 0 0 1 36.05 20.09" fill="none" stroke="#D4AF37" stroke-width="2" stroke-linecap="round"/>
  <path d="M 63.95 20.09 A 33 33 0 0 1 79.91 36.05" fill="none" stroke="#D4AF37" stroke-width="2" stroke-linecap="round"/>
  <line x1="76.92" y1="42.28" x2="89.41" y2="38.70" stroke="#D4AF37" stroke-width="1.5" stroke-linecap="round"/>
  <circle cx="89.41" cy="38.70" r="2.0" fill="#D4AF37"/>
  <line x1="78.00" y1="50.00" x2="95.00" y2="50.00" stroke="#D4AF37" stroke-width="1.5" stroke-linecap="round"/>
  <circle cx="95.00" cy="50.00" r="2.5" fill="#D4AF37"/>
  <line x1="76.92" y1="57.72" x2="89.41" y2="61.30" stroke="#D4AF37" stroke-width="1.5" stroke-linecap="round"/>
  <circle cx="89.41" cy="61.30" r="2.0" fill="#D4AF37"/>
  <line x1="57.72" y1="76.92" x2="61.30" y2="89.41" stroke="#D4AF37" stroke-width="1.5" stroke-linecap="round"/>
  <circle cx="61.30" cy="89.41" r="2.0" fill="#D4AF37"/>
  <line x1="50.00" y1="78.00" x2="50.00" y2="95.00" stroke="#D4AF37" stroke-width="1.5" stroke-linecap="round"/>
  <circle cx="50.00" cy="95.00" r="2.5" fill="#D4AF37"/>
  <line x1="42.28" y1="76.92" x2="38.70" y2="89.41" stroke="#D4AF37" stroke-width="1.5" stroke-linecap="round"/>
  <circle cx="38.70" cy="89.41" r="2.0" fill="#D4AF37"/>
  <line x1="23.08" y1="57.72" x2="10.59" y2="61.30" stroke="#D4AF37" stroke-width="1.5" stroke-linecap="round"/>
  <circle cx="10.59" cy="61.30" r="2.0" fill="#D4AF37"/>
  <line x1="22.00" y1="50.00" x2="5.00" y2="50.00" stroke="#D4AF37" stroke-width="1.5" stroke-linecap="round"/>
  <circle cx="5.00" cy="50.00" r="2.5" fill="#D4AF37"/>
  <line x1="23.08" y1="42.28" x2="10.59" y2="38.70" stroke="#D4AF37" stroke-width="1.5" stroke-linecap="round"/>
  <circle cx="10.59" cy="38.70" r="2.0" fill="#D4AF37"/>
  <line x1="42.28" y1="23.08" x2="38.70" y2="10.59" stroke="#D4AF37" stroke-width="1.5" stroke-linecap="round"/>
  <circle cx="38.70" cy="10.59" r="2.0" fill="#D4AF37"/>
  <line x1="50.00" y1="22.00" x2="50.00" y2="5.00" stroke="#D4AF37" stroke-width="1.5" stroke-linecap="round"/>
  <circle cx="50.00" cy="5.00" r="2.5" fill="#D4AF37"/>
  <line x1="57.72" y1="23.08" x2="61.30" y2="10.59" stroke="#D4AF37" stroke-width="1.5" stroke-linecap="round"/>
  <circle cx="61.30" cy="10.59" r="2.0" fill="#D4AF37"/>
</svg>
